<?xml version="1.0" ?><svg enable-background="new 45.6 168.9 504 504" id="Layer_1" version="1.1" viewBox="45.6 168.9 504 504" xml:space="preserve" xmlns="http://www.w3.org/2000/svg" xmlns:xlink="http://www.w3.org/1999/xlink"><g><path d="M415,210.1H120.3c-11.6,0-21.1,9.5-21.1,21.1v63.2c0,11.6,9.5,21.1,21.1,21.1H415   c11.6,0,21.1-9.5,21.1-21.1v-63.2C436.1,219.6,426.6,210.1,415,210.1z" fill="#D1C4E9"/><path d="M415,336.4H120.3c-11.6,0-21.1,9.5-21.1,21.1v63.2c0,11.6,9.5,21.1,21.1,21.1h264.2   c13.7-13.7,51.6-9.5,51.6-21.1v-63.2C436.1,345.9,426.6,336.4,415,336.4z" fill="#D1C4E9"/><path d="M377.1,462.8H120.3c-11.6,0-21.1,9.5-21.1,21.1V547c0,11.6,9.5,21.1,21.1,21.1H415   c11.6,0,21.1-9.5,21.1-21.1v-25.3C436.1,489.1,409.8,462.8,377.1,462.8z" fill="#D1C4E9"/></g><path d="M499.2,399.6H351.9c-11.6,0-21.1,9.5-21.1,21.1v124.2c0,13.7,6.3,25.3,16.8,33.7l77.9,57.9l77.9-57.9  c10.5-8.4,16.8-20,16.8-33.7V420.6C520.3,409.1,510.8,399.6,499.2,399.6z" fill="#009688"/></svg>